<svg xmlns="http://www.w3.org/2000/svg" version="1.1" xmlns:xlink="http://www.w3.org/1999/xlink" width="1000" height="1000"><style>
    #light-icon {
      display: inline;
    }
    #dark-icon {
      display: none;
    }

    @media (prefers-color-scheme: dark) {
      #light-icon {
        display: none;
      }
      #dark-icon {
        display: inline;
      }
    }
  </style><g id="light-icon"><svg xmlns="http://www.w3.org/2000/svg" version="1.1" xmlns:xlink="http://www.w3.org/1999/xlink" width="1000" height="1000"><g><g transform="matrix(1.3440860215053763,0,0,1.3440860215053763,5.684341886080802e-14,81.98924731182797)"><svg xmlns="http://www.w3.org/2000/svg" version="1.1" xmlns:xlink="http://www.w3.org/1999/xlink" width="744" height="622"><svg width="744" height="622" viewBox="0 0 744 622" fill="none" xmlns="http://www.w3.org/2000/svg">
<path d="M36.9492 341.045C101.849 487.045 298.449 581.945 362.649 609.745C365.449 610.745 368.349 611.145 371.149 611.145C374.049 611.045 376.749 610.445 379.249 609.345C381.749 608.245 384.049 606.645 385.949 604.545C387.849 602.545 389.449 600.045 390.649 597.245C413.149 531.045 474.749 321.645 409.949 175.545C382.349 113.445 336.349 62.6453 281.849 34.2453C227.449 5.84527 169.049 2.24527 119.649 24.2453C70.1492 46.1453 33.6492 91.8452 18.1492 151.245C2.64925 210.645 9.44924 278.945 36.9492 341.045Z" fill="#F3E7FB" stroke="#7C41AC" stroke-width="20" stroke-linecap="round" stroke-linejoin="round"></path>
<path d="M706.349 341.045C641.549 487.045 444.949 581.945 380.749 609.745C377.849 610.745 374.949 611.145 372.149 611.145C369.349 611.045 366.649 610.445 364.149 609.345C361.549 608.245 359.349 606.645 357.349 604.545C355.449 602.545 353.849 600.045 352.749 597.245C330.149 531.045 268.649 321.645 333.449 175.545C360.949 113.445 407.049 62.6453 461.449 34.2453C515.949 5.84527 574.249 2.24527 623.749 24.2453C673.149 46.1453 709.649 91.8452 725.149 151.245C740.649 210.645 733.849 278.945 706.349 341.045Z" fill="#7C41AC" stroke="#7C41AC" stroke-width="20" stroke-linecap="round" stroke-linejoin="round"></path>
<path d="M200.349 294.845C159.349 294.845 126.249 261.745 126.249 220.745C126.249 179.745 159.349 146.645 200.349 146.645C241.349 146.645 274.449 179.745 274.449 220.745C274.449 261.745 241.349 294.845 200.349 294.845Z" fill="#7C41AC" stroke="#F3E7FB" stroke-width="20" stroke-linecap="round" stroke-linejoin="round"></path>
<path d="M532.349 307.845C491.349 307.845 458.249 274.745 458.249 233.745C458.249 192.745 491.349 159.645 532.349 159.645C573.349 159.645 606.449 192.745 606.449 233.745C606.449 274.745 573.349 307.845 532.349 307.845Z" fill="#F3E7FB" stroke="#7C41AC" stroke-width="20" stroke-linecap="round" stroke-linejoin="round"></path>
</svg></svg></g></g></svg></g><g id="dark-icon"><svg xmlns="http://www.w3.org/2000/svg" version="1.1" xmlns:xlink="http://www.w3.org/1999/xlink" width="1000" height="1000"><g><g transform="matrix(1.3440860215053763,0,0,1.3440860215053763,5.684341886080802e-14,81.98924731182797)"><svg xmlns="http://www.w3.org/2000/svg" version="1.1" xmlns:xlink="http://www.w3.org/1999/xlink" width="744" height="622"><svg width="744" height="622" viewBox="0 0 744 622" fill="none" xmlns="http://www.w3.org/2000/svg">
<path d="M36.9492 341.045C101.849 487.045 298.449 581.945 362.649 609.745C365.449 610.745 368.349 611.145 371.149 611.145C374.049 611.045 376.749 610.445 379.249 609.345C381.749 608.245 384.049 606.645 385.949 604.545C387.849 602.545 389.449 600.045 390.649 597.245C413.149 531.045 474.749 321.645 409.949 175.545C382.349 113.445 336.349 62.6453 281.849 34.2453C227.449 5.84527 169.049 2.24527 119.649 24.2453C70.1492 46.1453 33.6492 91.8452 18.1492 151.245C2.64925 210.645 9.44924 278.945 36.9492 341.045Z" fill="#3A1E47" stroke="#CAB3CC" stroke-width="20" stroke-linecap="round" stroke-linejoin="round"></path>
<path d="M706.349 341.045C641.549 487.045 444.949 581.945 380.749 609.745C377.849 610.745 374.949 611.145 372.149 611.145C369.349 611.045 366.649 610.445 364.149 609.345C361.549 608.245 359.349 606.645 357.349 604.545C355.449 602.545 353.849 600.045 352.749 597.245C330.149 531.045 268.649 321.645 333.449 175.545C360.949 113.445 407.049 62.6453 461.449 34.2453C515.949 5.84527 574.249 2.24527 623.749 24.2453C673.149 46.1453 709.649 91.8452 725.149 151.245C740.649 210.645 733.849 278.945 706.349 341.045Z" fill="#CAB3CC" stroke="#CAB3CC" stroke-width="20" stroke-linecap="round" stroke-linejoin="round"></path>
<path d="M200.349 294.845C159.349 294.845 126.249 261.745 126.249 220.745C126.249 179.745 159.349 146.645 200.349 146.645C241.349 146.645 274.449 179.745 274.449 220.745C274.449 261.745 241.349 294.845 200.349 294.845Z" fill="#CAB3CC" stroke="#3A1E47" stroke-width="20" stroke-linecap="round" stroke-linejoin="round"></path>
<path d="M532.349 307.845C491.349 307.845 458.249 274.745 458.249 233.745C458.249 192.745 491.349 159.645 532.349 159.645C573.349 159.645 606.449 192.745 606.449 233.745C606.449 274.745 573.349 307.845 532.349 307.845Z" fill="#3A1E47" stroke="#CAB3CC" stroke-width="20" stroke-linecap="round" stroke-linejoin="round"></path>
</svg></svg></g></g></svg></g></svg>